<mxfile host="Electron" agent="Mozilla/5.0 (Windows NT 10.0; Win64; x64) AppleWebKit/537.36 (KHTML, like Gecko) draw.io/24.7.5 Chrome/126.0.6478.183 Electron/31.3.0 Safari/537.36" version="24.7.5">
  <diagram name="Page-1" id="ewoEDHIA1wSpUU_beEgm">
    <mxGraphModel dx="1244" dy="606" grid="1" gridSize="10" guides="1" tooltips="1" connect="1" arrows="1" fold="1" page="1" pageScale="1" pageWidth="827" pageHeight="1169" math="0" shadow="0">
      <root>
        <mxCell id="0" />
        <mxCell id="1" parent="0" />
        <mxCell id="wWqvwWIY2G9IgE8s-0Am-1" value="" style="whiteSpace=wrap;html=1;imageAspect=0;imageHeight=16;" parent="1" vertex="1">
          <mxGeometry x="150" y="170" width="950" height="1380" as="geometry" />
        </mxCell>
        <mxCell id="wWqvwWIY2G9IgE8s-0Am-3" value="Ebook Store" style="text;html=1;whiteSpace=wrap;overflow=hidden;rounded=0;fontStyle=1;spacing=3;fontSize=24;" parent="1" vertex="1">
          <mxGeometry x="160" y="180" width="220" height="30" as="geometry" />
        </mxCell>
        <mxCell id="wWqvwWIY2G9IgE8s-0Am-5" value="User" style="shape=umlActor;verticalLabelPosition=bottom;verticalAlign=top;html=1;outlineConnect=0;fontSize=18;" parent="1" vertex="1">
          <mxGeometry x="40" y="485.5" width="40" height="90" as="geometry" />
        </mxCell>
        <mxCell id="wWqvwWIY2G9IgE8s-0Am-7" value="Sign Up" style="ellipse;whiteSpace=wrap;html=1;fontSize=16;" parent="1" vertex="1">
          <mxGeometry x="250" y="514.38" width="100" height="50" as="geometry" />
        </mxCell>
        <mxCell id="wWqvwWIY2G9IgE8s-0Am-9" value="Log In" style="ellipse;whiteSpace=wrap;html=1;fontSize=16;" parent="1" vertex="1">
          <mxGeometry x="230" y="280" width="100" height="50" as="geometry" />
        </mxCell>
        <mxCell id="wWqvwWIY2G9IgE8s-0Am-10" value="Verify username &amp;amp; password" style="ellipse;whiteSpace=wrap;html=1;fontSize=16;" parent="1" vertex="1">
          <mxGeometry x="470" y="220" width="170" height="68" as="geometry" />
        </mxCell>
        <mxCell id="wWqvwWIY2G9IgE8s-0Am-11" value="Display login error" style="ellipse;whiteSpace=wrap;html=1;fontSize=16;" parent="1" vertex="1">
          <mxGeometry x="448.5" y="295" width="141.5" height="65" as="geometry" />
        </mxCell>
        <mxCell id="wWqvwWIY2G9IgE8s-0Am-13" value="&amp;lt;&amp;lt;include&amp;gt;&amp;gt;" style="endArrow=openThin;endSize=16;endFill=0;html=1;rounded=0;startFill=1;dashed=1;dashPattern=12 12;fontSize=18;entryX=0;entryY=0.5;entryDx=0;entryDy=0;exitX=1;exitY=0.5;exitDx=0;exitDy=0;strokeWidth=1;" parent="1" source="wWqvwWIY2G9IgE8s-0Am-9" target="wWqvwWIY2G9IgE8s-0Am-10" edge="1">
          <mxGeometry width="160" relative="1" as="geometry">
            <mxPoint x="320" y="329" as="sourcePoint" />
            <mxPoint x="482" y="308" as="targetPoint" />
          </mxGeometry>
        </mxCell>
        <mxCell id="wWqvwWIY2G9IgE8s-0Am-17" value="" style="endArrow=none;html=1;rounded=0;exitX=0.5;exitY=0.5;exitDx=0;exitDy=0;exitPerimeter=0;" parent="1" source="wWqvwWIY2G9IgE8s-0Am-5" target="wWqvwWIY2G9IgE8s-0Am-9" edge="1">
          <mxGeometry width="50" height="50" relative="1" as="geometry">
            <mxPoint x="60" y="388.6905663291175" as="sourcePoint" />
            <mxPoint x="160" y="308" as="targetPoint" />
          </mxGeometry>
        </mxCell>
        <mxCell id="wWqvwWIY2G9IgE8s-0Am-18" value="&amp;lt;&amp;lt;extend&amp;gt;&amp;gt;" style="endArrow=openThin;endSize=16;endFill=0;html=1;rounded=0;startFill=1;dashed=1;dashPattern=12 12;fontSize=18;entryX=1;entryY=1;entryDx=0;entryDy=0;exitX=0;exitY=0.5;exitDx=0;exitDy=0;strokeWidth=1;" parent="1" source="wWqvwWIY2G9IgE8s-0Am-11" target="wWqvwWIY2G9IgE8s-0Am-9" edge="1">
          <mxGeometry width="160" relative="1" as="geometry">
            <mxPoint x="548" y="418" as="sourcePoint" />
            <mxPoint x="398" y="489" as="targetPoint" />
          </mxGeometry>
        </mxCell>
        <mxCell id="wWqvwWIY2G9IgE8s-0Am-20" value="Email" style="ellipse;whiteSpace=wrap;html=1;fontSize=16;flipV=1;flipH=1;" parent="1" vertex="1">
          <mxGeometry x="540" y="434.38" width="110" height="60" as="geometry" />
        </mxCell>
        <mxCell id="wWqvwWIY2G9IgE8s-0Am-22" value="Name" style="ellipse;whiteSpace=wrap;html=1;fontSize=16;flipV=1;flipH=1;" parent="1" vertex="1">
          <mxGeometry x="543" y="364.38" width="110" height="60" as="geometry" />
        </mxCell>
        <mxCell id="wWqvwWIY2G9IgE8s-0Am-24" value="Password" style="ellipse;whiteSpace=wrap;html=1;fontSize=16;flipV=1;flipH=1;" parent="1" vertex="1">
          <mxGeometry x="540" y="504.38" width="110" height="60" as="geometry" />
        </mxCell>
        <mxCell id="wWqvwWIY2G9IgE8s-0Am-31" value="Publisher&lt;div style=&quot;font-size: 18px;&quot;&gt;&lt;br style=&quot;font-size: 18px;&quot;&gt;&lt;/div&gt;" style="shape=umlActor;verticalLabelPosition=bottom;verticalAlign=top;html=1;outlineConnect=0;fontSize=18;" parent="1" vertex="1">
          <mxGeometry x="1221" y="844.5" width="40" height="90" as="geometry" />
        </mxCell>
        <mxCell id="wWqvwWIY2G9IgE8s-0Am-32" value="&lt;div style=&quot;font-size: 18px;&quot;&gt;Self_author&lt;/div&gt;" style="shape=umlActor;verticalLabelPosition=bottom;verticalAlign=top;html=1;outlineConnect=0;fontSize=18;" parent="1" vertex="1">
          <mxGeometry x="40" y="1167.5" width="40" height="90" as="geometry" />
        </mxCell>
        <mxCell id="wWqvwWIY2G9IgE8s-0Am-33" value="&lt;div style=&quot;font-size: 18px;&quot;&gt;Admin&lt;/div&gt;" style="shape=umlActor;verticalLabelPosition=bottom;verticalAlign=top;html=1;outlineConnect=0;fontSize=18;" parent="1" vertex="1">
          <mxGeometry x="1221" y="664" width="40" height="90" as="geometry" />
        </mxCell>
        <mxCell id="wWqvwWIY2G9IgE8s-0Am-36" value="Search book" style="ellipse;whiteSpace=wrap;html=1;fontSize=16;" parent="1" vertex="1">
          <mxGeometry x="210" y="634" width="110" height="60" as="geometry" />
        </mxCell>
        <mxCell id="wWqvwWIY2G9IgE8s-0Am-37" value="Book name" style="ellipse;whiteSpace=wrap;html=1;fontSize=16;flipV=0;" parent="1" vertex="1">
          <mxGeometry x="480.75" y="624" width="100" height="50" as="geometry" />
        </mxCell>
        <mxCell id="wWqvwWIY2G9IgE8s-0Am-39" value="Keywords" style="ellipse;whiteSpace=wrap;html=1;fontSize=16;flipV=0;" parent="1" vertex="1">
          <mxGeometry x="474.5" y="760" width="100" height="50" as="geometry" />
        </mxCell>
        <mxCell id="wWqvwWIY2G9IgE8s-0Am-40" value="Category&amp;nbsp;" style="ellipse;whiteSpace=wrap;html=1;fontSize=16;flipV=0;" parent="1" vertex="1">
          <mxGeometry x="474.5" y="694" width="100" height="50" as="geometry" />
        </mxCell>
        <mxCell id="wWqvwWIY2G9IgE8s-0Am-41" value="Make payment" style="ellipse;whiteSpace=wrap;html=1;fontSize=16;" parent="1" vertex="1">
          <mxGeometry x="283" y="940" width="125" height="70" as="geometry" />
        </mxCell>
        <mxCell id="wWqvwWIY2G9IgE8s-0Am-42" value="Purchase books" style="ellipse;whiteSpace=wrap;html=1;fontSize=16;" parent="1" vertex="1">
          <mxGeometry x="284" y="820" width="130" height="65" as="geometry" />
        </mxCell>
        <mxCell id="wWqvwWIY2G9IgE8s-0Am-43" value="View purchased books" style="ellipse;whiteSpace=wrap;html=1;fontSize=16;" parent="1" vertex="1">
          <mxGeometry x="210" y="1020.0000000000001" width="140" height="70" as="geometry" />
        </mxCell>
        <mxCell id="wWqvwWIY2G9IgE8s-0Am-44" value="Give Review" style="ellipse;whiteSpace=wrap;html=1;fontSize=16;" parent="1" vertex="1">
          <mxGeometry x="479.5" y="952.5000000000001" width="121.5" height="57.5" as="geometry" />
        </mxCell>
        <mxCell id="wWqvwWIY2G9IgE8s-0Am-48" value="View Dashboard" style="ellipse;whiteSpace=wrap;html=1;fontSize=16;" parent="1" vertex="1">
          <mxGeometry x="800" y="1020" width="150" height="70" as="geometry" />
        </mxCell>
        <mxCell id="wWqvwWIY2G9IgE8s-0Am-49" value="Download report" style="ellipse;whiteSpace=wrap;html=1;fontSize=16;" parent="1" vertex="1">
          <mxGeometry x="810" y="1099" width="150" height="70" as="geometry" />
        </mxCell>
        <mxCell id="wWqvwWIY2G9IgE8s-0Am-50" value="Approve author" style="ellipse;whiteSpace=wrap;html=1;fontSize=16;" parent="1" vertex="1">
          <mxGeometry x="991" y="575.5" width="100" height="70" as="geometry" />
        </mxCell>
        <mxCell id="wWqvwWIY2G9IgE8s-0Am-51" value="Approve book" style="ellipse;whiteSpace=wrap;html=1;fontSize=16;" parent="1" vertex="1">
          <mxGeometry x="991" y="675.12" width="100" height="70" as="geometry" />
        </mxCell>
        <mxCell id="wWqvwWIY2G9IgE8s-0Am-53" value="Remove author" style="ellipse;whiteSpace=wrap;html=1;fontSize=16;" parent="1" vertex="1">
          <mxGeometry x="806" y="575.5" width="84" height="70" as="geometry" />
        </mxCell>
        <mxCell id="wWqvwWIY2G9IgE8s-0Am-54" value="Remove book" style="ellipse;whiteSpace=wrap;html=1;fontSize=16;" parent="1" vertex="1">
          <mxGeometry x="800" y="674" width="75" height="70" as="geometry" />
        </mxCell>
        <mxCell id="wWqvwWIY2G9IgE8s-0Am-55" value="Title" style="ellipse;whiteSpace=wrap;html=1;fontSize=16;" parent="1" vertex="1">
          <mxGeometry x="643" y="1235" width="130" height="55" as="geometry" />
        </mxCell>
        <mxCell id="wWqvwWIY2G9IgE8s-0Am-57" value="Description" style="ellipse;whiteSpace=wrap;html=1;fontSize=16;" parent="1" vertex="1">
          <mxGeometry x="643" y="1297" width="130" height="55" as="geometry" />
        </mxCell>
        <mxCell id="wWqvwWIY2G9IgE8s-0Am-58" value="Book cover" style="ellipse;whiteSpace=wrap;html=1;fontSize=16;" parent="1" vertex="1">
          <mxGeometry x="643" y="1359" width="130" height="55" as="geometry" />
        </mxCell>
        <mxCell id="wWqvwWIY2G9IgE8s-0Am-59" value="Manuscript" style="ellipse;whiteSpace=wrap;html=1;fontSize=16;" parent="1" vertex="1">
          <mxGeometry x="640" y="1420" width="130" height="55" as="geometry" />
        </mxCell>
        <mxCell id="wWqvwWIY2G9IgE8s-0Am-62" value="Pricing" style="ellipse;whiteSpace=wrap;html=1;fontSize=16;" parent="1" vertex="1">
          <mxGeometry x="640" y="1482" width="130" height="55" as="geometry" />
        </mxCell>
        <mxCell id="wWqvwWIY2G9IgE8s-0Am-63" value="" style="endArrow=none;html=1;rounded=0;entryX=0;entryY=0.5;entryDx=0;entryDy=0;exitX=0.5;exitY=0.5;exitDx=0;exitDy=0;exitPerimeter=0;" parent="1" source="wWqvwWIY2G9IgE8s-0Am-5" target="wWqvwWIY2G9IgE8s-0Am-7" edge="1">
          <mxGeometry width="50" height="50" relative="1" as="geometry">
            <mxPoint x="60" y="399" as="sourcePoint" />
            <mxPoint x="224" y="353" as="targetPoint" />
          </mxGeometry>
        </mxCell>
        <mxCell id="wWqvwWIY2G9IgE8s-0Am-65" value="&amp;lt;&amp;lt;include&amp;gt;&amp;gt;" style="endArrow=openThin;endSize=16;endFill=0;html=1;rounded=0;startFill=1;dashed=1;dashPattern=12 12;fontSize=18;entryX=0;entryY=0.5;entryDx=0;entryDy=0;exitX=1;exitY=0.5;exitDx=0;exitDy=0;strokeWidth=1;" parent="1" source="wWqvwWIY2G9IgE8s-0Am-7" target="wWqvwWIY2G9IgE8s-0Am-22" edge="1">
          <mxGeometry width="160" relative="1" as="geometry">
            <mxPoint x="385" y="496.88" as="sourcePoint" />
            <mxPoint x="545" y="426.88" as="targetPoint" />
          </mxGeometry>
        </mxCell>
        <mxCell id="wWqvwWIY2G9IgE8s-0Am-67" value="&amp;lt;&amp;lt;include&amp;gt;&amp;gt;" style="endArrow=openThin;endSize=16;endFill=0;html=1;rounded=0;startFill=1;dashed=1;dashPattern=12 12;fontSize=18;entryX=0;entryY=0.5;entryDx=0;entryDy=0;exitX=1;exitY=0.5;exitDx=0;exitDy=0;strokeWidth=1;" parent="1" source="wWqvwWIY2G9IgE8s-0Am-7" target="wWqvwWIY2G9IgE8s-0Am-20" edge="1">
          <mxGeometry width="160" relative="1" as="geometry">
            <mxPoint x="285" y="474.88" as="sourcePoint" />
            <mxPoint x="535" y="489.88" as="targetPoint" />
          </mxGeometry>
        </mxCell>
        <mxCell id="wWqvwWIY2G9IgE8s-0Am-68" value="&amp;lt;&amp;lt;include&amp;gt;&amp;gt;" style="endArrow=openThin;endSize=16;endFill=0;html=1;rounded=0;startFill=1;dashed=1;dashPattern=12 12;fontSize=18;entryX=0;entryY=0.5;entryDx=0;entryDy=0;exitX=1;exitY=0.5;exitDx=0;exitDy=0;strokeWidth=1;" parent="1" source="wWqvwWIY2G9IgE8s-0Am-7" target="wWqvwWIY2G9IgE8s-0Am-24" edge="1">
          <mxGeometry width="160" relative="1" as="geometry">
            <mxPoint x="275" y="511.38" as="sourcePoint" />
            <mxPoint x="525" y="604.38" as="targetPoint" />
          </mxGeometry>
        </mxCell>
        <mxCell id="wWqvwWIY2G9IgE8s-0Am-69" value="Email Already Exists" style="ellipse;whiteSpace=wrap;html=1;fontSize=16;" parent="1" vertex="1">
          <mxGeometry x="823" y="431.88" width="170" height="80" as="geometry" />
        </mxCell>
        <mxCell id="wWqvwWIY2G9IgE8s-0Am-70" value="&amp;lt;&amp;lt;extend&amp;gt;&amp;gt;" style="endArrow=openThin;endSize=16;endFill=0;html=1;rounded=0;startFill=1;dashed=1;dashPattern=12 12;fontSize=18;entryX=1;entryY=0.5;entryDx=0;entryDy=0;" parent="1" source="wWqvwWIY2G9IgE8s-0Am-69" target="wWqvwWIY2G9IgE8s-0Am-20" edge="1">
          <mxGeometry width="160" relative="1" as="geometry">
            <mxPoint x="800" y="486.88" as="sourcePoint" />
            <mxPoint x="650" y="487.88" as="targetPoint" />
          </mxGeometry>
        </mxCell>
        <mxCell id="wWqvwWIY2G9IgE8s-0Am-71" value="" style="endArrow=none;html=1;rounded=0;entryX=0;entryY=0.5;entryDx=0;entryDy=0;exitX=0.5;exitY=0.5;exitDx=0;exitDy=0;exitPerimeter=0;" parent="1" source="wWqvwWIY2G9IgE8s-0Am-5" target="wWqvwWIY2G9IgE8s-0Am-36" edge="1">
          <mxGeometry width="50" height="50" relative="1" as="geometry">
            <mxPoint x="85" y="500" as="sourcePoint" />
            <mxPoint x="215" y="528" as="targetPoint" />
          </mxGeometry>
        </mxCell>
        <mxCell id="wWqvwWIY2G9IgE8s-0Am-72" value="&amp;lt;&amp;lt;extend&amp;gt;&amp;gt;" style="endArrow=openThin;endSize=16;endFill=0;html=1;rounded=0;startFill=1;dashed=1;dashPattern=12 12;fontSize=18;entryX=1;entryY=0.5;entryDx=0;entryDy=0;exitX=0;exitY=0.5;exitDx=0;exitDy=0;" parent="1" source="wWqvwWIY2G9IgE8s-0Am-37" target="wWqvwWIY2G9IgE8s-0Am-36" edge="1">
          <mxGeometry width="160" relative="1" as="geometry">
            <mxPoint x="542" y="764.38" as="sourcePoint" />
            <mxPoint x="365" y="737.38" as="targetPoint" />
          </mxGeometry>
        </mxCell>
        <mxCell id="wWqvwWIY2G9IgE8s-0Am-73" value="&amp;lt;&amp;lt;extend&amp;gt;&amp;gt;" style="endArrow=openThin;endSize=16;endFill=0;html=1;rounded=0;startFill=1;dashed=1;dashPattern=12 12;fontSize=18;entryX=1;entryY=1;entryDx=0;entryDy=0;exitX=0;exitY=0.5;exitDx=0;exitDy=0;" parent="1" source="wWqvwWIY2G9IgE8s-0Am-40" target="wWqvwWIY2G9IgE8s-0Am-36" edge="1">
          <mxGeometry width="160" relative="1" as="geometry">
            <mxPoint x="455" y="891.38" as="sourcePoint" />
            <mxPoint x="365" y="844.38" as="targetPoint" />
          </mxGeometry>
        </mxCell>
        <mxCell id="wWqvwWIY2G9IgE8s-0Am-74" value="&amp;lt;&amp;lt;extend&amp;gt;&amp;gt;" style="endArrow=openThin;endSize=16;endFill=0;html=1;rounded=0;startFill=1;dashed=1;dashPattern=12 12;fontSize=18;entryX=0.645;entryY=1.006;entryDx=0;entryDy=0;exitX=0;exitY=0.5;exitDx=0;exitDy=0;entryPerimeter=0;" parent="1" source="wWqvwWIY2G9IgE8s-0Am-39" target="wWqvwWIY2G9IgE8s-0Am-36" edge="1">
          <mxGeometry width="160" relative="1" as="geometry">
            <mxPoint x="435" y="932.38" as="sourcePoint" />
            <mxPoint x="329" y="848.38" as="targetPoint" />
          </mxGeometry>
        </mxCell>
        <mxCell id="wWqvwWIY2G9IgE8s-0Am-75" value="Add books" style="ellipse;whiteSpace=wrap;html=1;fontSize=16;" parent="1" vertex="1">
          <mxGeometry x="670" y="820" width="130" height="65" as="geometry" />
        </mxCell>
        <mxCell id="wWqvwWIY2G9IgE8s-0Am-76" value="Remove books&amp;nbsp;" style="ellipse;whiteSpace=wrap;html=1;fontSize=16;" parent="1" vertex="1">
          <mxGeometry x="670" y="895" width="130" height="65" as="geometry" />
        </mxCell>
        <mxCell id="wWqvwWIY2G9IgE8s-0Am-77" value="&amp;lt;&amp;lt;extend&amp;gt;&amp;gt;" style="endArrow=openThin;endSize=16;endFill=0;html=1;rounded=0;startFill=1;dashed=1;dashPattern=12 12;fontSize=18;entryX=1;entryY=0.5;entryDx=0;entryDy=0;exitX=0;exitY=0.5;exitDx=0;exitDy=0;" parent="1" source="wWqvwWIY2G9IgE8s-0Am-75" target="wWqvwWIY2G9IgE8s-0Am-42" edge="1">
          <mxGeometry width="160" relative="1" as="geometry">
            <mxPoint x="959" y="1200" as="sourcePoint" />
            <mxPoint x="800" y="1020.0000000000001" as="targetPoint" />
          </mxGeometry>
        </mxCell>
        <mxCell id="wWqvwWIY2G9IgE8s-0Am-78" value="&amp;lt;&amp;lt;extend&amp;gt;&amp;gt;" style="endArrow=openThin;endSize=16;endFill=0;html=1;rounded=0;startFill=1;dashed=1;dashPattern=12 12;fontSize=18;entryX=1;entryY=1;entryDx=0;entryDy=0;exitX=0;exitY=0.5;exitDx=0;exitDy=0;" parent="1" source="wWqvwWIY2G9IgE8s-0Am-76" target="wWqvwWIY2G9IgE8s-0Am-42" edge="1">
          <mxGeometry width="160" relative="1" as="geometry">
            <mxPoint x="555" y="1150" as="sourcePoint" />
            <mxPoint x="395" y="1150" as="targetPoint" />
          </mxGeometry>
        </mxCell>
        <mxCell id="wWqvwWIY2G9IgE8s-0Am-79" value="" style="endArrow=none;html=1;rounded=0;entryX=0;entryY=0.5;entryDx=0;entryDy=0;exitX=0.5;exitY=0.5;exitDx=0;exitDy=0;exitPerimeter=0;" parent="1" source="wWqvwWIY2G9IgE8s-0Am-5" target="wWqvwWIY2G9IgE8s-0Am-42" edge="1">
          <mxGeometry width="50" height="50" relative="1" as="geometry">
            <mxPoint x="75" y="600" as="sourcePoint" />
            <mxPoint x="200" y="733" as="targetPoint" />
          </mxGeometry>
        </mxCell>
        <mxCell id="wWqvwWIY2G9IgE8s-0Am-80" value="&amp;lt;&amp;lt;include&amp;gt;&amp;gt;" style="endArrow=openThin;endSize=16;endFill=0;html=1;rounded=0;startFill=1;dashed=1;dashPattern=12 12;fontSize=18;entryX=0.5;entryY=0;entryDx=0;entryDy=0;exitX=0.428;exitY=0.995;exitDx=0;exitDy=0;strokeWidth=1;exitPerimeter=0;" parent="1" source="wWqvwWIY2G9IgE8s-0Am-42" target="wWqvwWIY2G9IgE8s-0Am-41" edge="1">
          <mxGeometry width="160" relative="1" as="geometry">
            <mxPoint x="380" y="1252" as="sourcePoint" />
            <mxPoint x="570" y="1239" as="targetPoint" />
          </mxGeometry>
        </mxCell>
        <mxCell id="wWqvwWIY2G9IgE8s-0Am-82" value="" style="endArrow=none;html=1;rounded=0;entryX=0;entryY=0.5;entryDx=0;entryDy=0;exitX=0.5;exitY=0.5;exitDx=0;exitDy=0;exitPerimeter=0;" parent="1" source="wWqvwWIY2G9IgE8s-0Am-5" target="wWqvwWIY2G9IgE8s-0Am-43" edge="1">
          <mxGeometry width="50" height="50" relative="1" as="geometry">
            <mxPoint x="-15.004393305439592" y="487" as="sourcePoint" />
            <mxPoint x="148.05" y="920" as="targetPoint" />
          </mxGeometry>
        </mxCell>
        <mxCell id="wWqvwWIY2G9IgE8s-0Am-88" value="&amp;lt;&amp;lt;extend&amp;gt;&amp;gt;" style="endArrow=openThin;endSize=16;endFill=0;html=1;rounded=0;startFill=1;dashed=1;dashPattern=12 12;fontSize=18;entryX=1;entryY=0.5;entryDx=0;entryDy=0;exitX=0;exitY=0.5;exitDx=0;exitDy=0;" parent="1" source="wWqvwWIY2G9IgE8s-0Am-44" target="wWqvwWIY2G9IgE8s-0Am-43" edge="1">
          <mxGeometry width="160" relative="1" as="geometry">
            <mxPoint x="589" y="1100.5" as="sourcePoint" />
            <mxPoint x="440" y="1069.5" as="targetPoint" />
          </mxGeometry>
        </mxCell>
        <mxCell id="wWqvwWIY2G9IgE8s-0Am-94" value="" style="endArrow=none;html=1;rounded=0;exitX=0.5;exitY=0.5;exitDx=0;exitDy=0;exitPerimeter=0;entryX=0.613;entryY=0.967;entryDx=0;entryDy=0;entryPerimeter=0;" parent="1" source="wWqvwWIY2G9IgE8s-0Am-32" target="wWqvwWIY2G9IgE8s-0Am-9" edge="1">
          <mxGeometry width="50" height="50" relative="1" as="geometry">
            <mxPoint x="70" y="541" as="sourcePoint" />
            <mxPoint x="220" y="368" as="targetPoint" />
          </mxGeometry>
        </mxCell>
        <mxCell id="wWqvwWIY2G9IgE8s-0Am-95" value="" style="endArrow=none;html=1;rounded=0;exitX=0.5;exitY=0.5;exitDx=0;exitDy=0;exitPerimeter=0;entryX=0.26;entryY=0.906;entryDx=0;entryDy=0;entryPerimeter=0;" parent="1" source="wWqvwWIY2G9IgE8s-0Am-32" target="wWqvwWIY2G9IgE8s-0Am-7" edge="1">
          <mxGeometry width="50" height="50" relative="1" as="geometry">
            <mxPoint x="70" y="1245" as="sourcePoint" />
            <mxPoint x="301" y="338" as="targetPoint" />
          </mxGeometry>
        </mxCell>
        <mxCell id="wWqvwWIY2G9IgE8s-0Am-96" value="Upload book" style="ellipse;whiteSpace=wrap;html=1;fontSize=16;" parent="1" vertex="1">
          <mxGeometry x="293" y="1320" width="150" height="70" as="geometry" />
        </mxCell>
        <mxCell id="wWqvwWIY2G9IgE8s-0Am-97" value="&amp;lt;&amp;lt;include&amp;gt;&amp;gt;" style="endArrow=openThin;endSize=16;endFill=0;html=1;rounded=0;startFill=1;dashed=1;dashPattern=12 12;fontSize=18;entryX=0;entryY=0.5;entryDx=0;entryDy=0;exitX=1;exitY=0.5;exitDx=0;exitDy=0;strokeWidth=1;" parent="1" source="wWqvwWIY2G9IgE8s-0Am-96" target="wWqvwWIY2G9IgE8s-0Am-55" edge="1">
          <mxGeometry width="160" relative="1" as="geometry">
            <mxPoint x="565.75" y="1390" as="sourcePoint" />
            <mxPoint x="1000.75" y="1411" as="targetPoint" />
          </mxGeometry>
        </mxCell>
        <mxCell id="wWqvwWIY2G9IgE8s-0Am-98" value="&amp;lt;&amp;lt;include&amp;gt;&amp;gt;" style="endArrow=openThin;endSize=16;endFill=0;html=1;rounded=0;startFill=1;dashed=1;dashPattern=12 12;fontSize=18;entryX=0.01;entryY=0.673;entryDx=0;entryDy=0;exitX=1;exitY=0.5;exitDx=0;exitDy=0;strokeWidth=1;entryPerimeter=0;" parent="1" source="wWqvwWIY2G9IgE8s-0Am-96" target="wWqvwWIY2G9IgE8s-0Am-57" edge="1">
          <mxGeometry width="160" relative="1" as="geometry">
            <mxPoint x="493" y="1592" as="sourcePoint" />
            <mxPoint x="583" y="1475" as="targetPoint" />
          </mxGeometry>
        </mxCell>
        <mxCell id="wWqvwWIY2G9IgE8s-0Am-100" value="&amp;lt;&amp;lt;include&amp;gt;&amp;gt;" style="endArrow=openThin;endSize=16;endFill=0;html=1;rounded=0;startFill=1;dashed=1;dashPattern=12 12;fontSize=18;entryX=0;entryY=0.5;entryDx=0;entryDy=0;exitX=1;exitY=0.5;exitDx=0;exitDy=0;strokeWidth=1;" parent="1" source="wWqvwWIY2G9IgE8s-0Am-96" target="wWqvwWIY2G9IgE8s-0Am-58" edge="1">
          <mxGeometry width="160" relative="1" as="geometry">
            <mxPoint x="388" y="1473" as="sourcePoint" />
            <mxPoint x="508" y="1507" as="targetPoint" />
          </mxGeometry>
        </mxCell>
        <mxCell id="wWqvwWIY2G9IgE8s-0Am-101" value="&amp;lt;&amp;lt;include&amp;gt;&amp;gt;" style="endArrow=openThin;endSize=16;endFill=0;html=1;rounded=0;startFill=1;dashed=1;dashPattern=12 12;fontSize=18;entryX=0;entryY=0.5;entryDx=0;entryDy=0;exitX=1;exitY=0.5;exitDx=0;exitDy=0;strokeWidth=1;" parent="1" source="wWqvwWIY2G9IgE8s-0Am-96" target="wWqvwWIY2G9IgE8s-0Am-59" edge="1">
          <mxGeometry width="160" relative="1" as="geometry">
            <mxPoint x="403" y="1462" as="sourcePoint" />
            <mxPoint x="523" y="1562" as="targetPoint" />
          </mxGeometry>
        </mxCell>
        <mxCell id="wWqvwWIY2G9IgE8s-0Am-102" value="&amp;lt;&amp;lt;include&amp;gt;&amp;gt;" style="endArrow=openThin;endSize=16;endFill=0;html=1;rounded=0;startFill=1;dashed=1;dashPattern=12 12;fontSize=18;entryX=0;entryY=0.5;entryDx=0;entryDy=0;exitX=1;exitY=0.5;exitDx=0;exitDy=0;strokeWidth=1;" parent="1" source="wWqvwWIY2G9IgE8s-0Am-96" target="wWqvwWIY2G9IgE8s-0Am-62" edge="1">
          <mxGeometry width="160" relative="1" as="geometry">
            <mxPoint x="383" y="1463" as="sourcePoint" />
            <mxPoint x="503" y="1628" as="targetPoint" />
          </mxGeometry>
        </mxCell>
        <mxCell id="wWqvwWIY2G9IgE8s-0Am-103" value="" style="endArrow=none;html=1;rounded=0;exitX=0.5;exitY=0.5;exitDx=0;exitDy=0;exitPerimeter=0;entryX=0;entryY=0.5;entryDx=0;entryDy=0;" parent="1" source="wWqvwWIY2G9IgE8s-0Am-32" target="wWqvwWIY2G9IgE8s-0Am-96" edge="1">
          <mxGeometry width="50" height="50" relative="1" as="geometry">
            <mxPoint x="70" y="1222.5" as="sourcePoint" />
            <mxPoint x="286" y="507.5" as="targetPoint" />
          </mxGeometry>
        </mxCell>
        <mxCell id="wWqvwWIY2G9IgE8s-0Am-105" value="" style="endArrow=none;html=1;rounded=0;entryX=1;entryY=0.5;entryDx=0;entryDy=0;exitX=0.5;exitY=0.5;exitDx=0;exitDy=0;exitPerimeter=0;" parent="1" source="wWqvwWIY2G9IgE8s-0Am-33" target="wWqvwWIY2G9IgE8s-0Am-48" edge="1">
          <mxGeometry width="50" height="50" relative="1" as="geometry">
            <mxPoint x="1220" y="916.5" as="sourcePoint" />
            <mxPoint x="1410" y="1404.5" as="targetPoint" />
          </mxGeometry>
        </mxCell>
        <mxCell id="wWqvwWIY2G9IgE8s-0Am-106" value="" style="endArrow=none;html=1;rounded=0;entryX=1;entryY=0.5;entryDx=0;entryDy=0;exitX=0.5;exitY=0.5;exitDx=0;exitDy=0;exitPerimeter=0;" parent="1" source="wWqvwWIY2G9IgE8s-0Am-33" target="wWqvwWIY2G9IgE8s-0Am-49" edge="1">
          <mxGeometry width="50" height="50" relative="1" as="geometry">
            <mxPoint x="1210" y="840" as="sourcePoint" />
            <mxPoint x="960" y="1059" as="targetPoint" />
          </mxGeometry>
        </mxCell>
        <mxCell id="wWqvwWIY2G9IgE8s-0Am-107" value="" style="endArrow=none;html=1;rounded=0;entryX=1;entryY=0.5;entryDx=0;entryDy=0;exitX=0.5;exitY=0.5;exitDx=0;exitDy=0;exitPerimeter=0;" parent="1" source="wWqvwWIY2G9IgE8s-0Am-31" target="wWqvwWIY2G9IgE8s-0Am-48" edge="1">
          <mxGeometry width="50" height="50" relative="1" as="geometry">
            <mxPoint x="1290" y="820" as="sourcePoint" />
            <mxPoint x="960" y="1153" as="targetPoint" />
          </mxGeometry>
        </mxCell>
        <mxCell id="wWqvwWIY2G9IgE8s-0Am-108" value="" style="endArrow=none;html=1;rounded=0;entryX=1;entryY=0.5;entryDx=0;entryDy=0;exitX=0.5;exitY=0.5;exitDx=0;exitDy=0;exitPerimeter=0;" parent="1" source="wWqvwWIY2G9IgE8s-0Am-31" target="wWqvwWIY2G9IgE8s-0Am-49" edge="1">
          <mxGeometry width="50" height="50" relative="1" as="geometry">
            <mxPoint x="1300" y="1167.5" as="sourcePoint" />
            <mxPoint x="970" y="1226.5" as="targetPoint" />
          </mxGeometry>
        </mxCell>
        <mxCell id="wWqvwWIY2G9IgE8s-0Am-110" value="&amp;lt;&amp;lt;extend&amp;gt;&amp;gt;" style="endArrow=openThin;endSize=16;endFill=0;html=1;rounded=0;startFill=1;dashed=1;dashPattern=12 12;fontSize=18;entryX=0;entryY=0.5;entryDx=0;entryDy=0;exitX=1;exitY=0.5;exitDx=0;exitDy=0;" parent="1" source="wWqvwWIY2G9IgE8s-0Am-53" target="wWqvwWIY2G9IgE8s-0Am-50" edge="1">
          <mxGeometry width="160" relative="1" as="geometry">
            <mxPoint x="1394" y="533" as="sourcePoint" />
            <mxPoint x="1221" y="528" as="targetPoint" />
          </mxGeometry>
        </mxCell>
        <mxCell id="wWqvwWIY2G9IgE8s-0Am-111" value="&amp;lt;&amp;lt;extend&amp;gt;&amp;gt;" style="endArrow=openThin;endSize=16;endFill=0;html=1;rounded=0;startFill=1;dashed=1;dashPattern=12 12;fontSize=18;entryX=0;entryY=0.5;entryDx=0;entryDy=0;exitX=1;exitY=0.5;exitDx=0;exitDy=0;" parent="1" source="wWqvwWIY2G9IgE8s-0Am-54" target="wWqvwWIY2G9IgE8s-0Am-51" edge="1">
          <mxGeometry width="160" relative="1" as="geometry">
            <mxPoint x="974" y="842.5" as="sourcePoint" />
            <mxPoint x="801" y="837.5" as="targetPoint" />
          </mxGeometry>
        </mxCell>
        <mxCell id="wWqvwWIY2G9IgE8s-0Am-112" value="" style="endArrow=none;html=1;rounded=0;exitX=0.5;exitY=0.5;exitDx=0;exitDy=0;exitPerimeter=0;entryX=0;entryY=0.5;entryDx=0;entryDy=0;" parent="1" source="wWqvwWIY2G9IgE8s-0Am-32" target="wWqvwWIY2G9IgE8s-0Am-48" edge="1">
          <mxGeometry width="50" height="50" relative="1" as="geometry">
            <mxPoint x="70" y="1223" as="sourcePoint" />
            <mxPoint x="286" y="570" as="targetPoint" />
          </mxGeometry>
        </mxCell>
        <mxCell id="wWqvwWIY2G9IgE8s-0Am-113" value="" style="endArrow=none;html=1;rounded=0;exitX=0.5;exitY=0.5;exitDx=0;exitDy=0;exitPerimeter=0;entryX=0;entryY=0.5;entryDx=0;entryDy=0;" parent="1" source="wWqvwWIY2G9IgE8s-0Am-32" target="wWqvwWIY2G9IgE8s-0Am-49" edge="1">
          <mxGeometry width="50" height="50" relative="1" as="geometry">
            <mxPoint x="70" y="1223" as="sourcePoint" />
            <mxPoint x="810" y="1059" as="targetPoint" />
          </mxGeometry>
        </mxCell>
        <mxCell id="wWqvwWIY2G9IgE8s-0Am-114" value="" style="endArrow=none;html=1;rounded=0;entryX=1;entryY=0.5;entryDx=0;entryDy=0;exitX=0.5;exitY=0.5;exitDx=0;exitDy=0;exitPerimeter=0;" parent="1" source="wWqvwWIY2G9IgE8s-0Am-33" target="wWqvwWIY2G9IgE8s-0Am-50" edge="1">
          <mxGeometry width="50" height="50" relative="1" as="geometry">
            <mxPoint x="1251" y="719" as="sourcePoint" />
            <mxPoint x="1030" y="890" as="targetPoint" />
          </mxGeometry>
        </mxCell>
        <mxCell id="wWqvwWIY2G9IgE8s-0Am-115" value="" style="endArrow=none;html=1;rounded=0;entryX=1;entryY=0.5;entryDx=0;entryDy=0;exitX=0.5;exitY=0.5;exitDx=0;exitDy=0;exitPerimeter=0;" parent="1" source="wWqvwWIY2G9IgE8s-0Am-33" target="wWqvwWIY2G9IgE8s-0Am-51" edge="1">
          <mxGeometry width="50" height="50" relative="1" as="geometry">
            <mxPoint x="1140" y="740" as="sourcePoint" />
            <mxPoint x="1030" y="890" as="targetPoint" />
          </mxGeometry>
        </mxCell>
        <mxCell id="VfW_FYXd1aemGToKWtEz-1" value="" style="endArrow=none;html=1;rounded=0;entryX=0.6;entryY=0.014;entryDx=0;entryDy=0;exitX=0.5;exitY=0.5;exitDx=0;exitDy=0;exitPerimeter=0;entryPerimeter=0;" parent="1" source="wWqvwWIY2G9IgE8s-0Am-33" target="wWqvwWIY2G9IgE8s-0Am-96" edge="1">
          <mxGeometry width="50" height="50" relative="1" as="geometry">
            <mxPoint x="1251" y="719" as="sourcePoint" />
            <mxPoint x="940" y="1005" as="targetPoint" />
          </mxGeometry>
        </mxCell>
        <mxCell id="wN9utnGlaQvAO8IS5gMv-1" value="View Written Books" style="ellipse;whiteSpace=wrap;html=1;fontSize=16;" parent="1" vertex="1">
          <mxGeometry x="225" y="1430" width="150" height="70" as="geometry" />
        </mxCell>
        <mxCell id="wN9utnGlaQvAO8IS5gMv-2" value="Read Book" style="ellipse;whiteSpace=wrap;html=1;fontSize=16;" parent="1" vertex="1">
          <mxGeometry x="470" y="1020" width="121.5" height="57.5" as="geometry" />
        </mxCell>
        <mxCell id="wN9utnGlaQvAO8IS5gMv-3" value="&amp;lt;&amp;lt;extend&amp;gt;&amp;gt;" style="endArrow=openThin;endSize=16;endFill=0;html=1;rounded=0;startFill=1;dashed=1;dashPattern=12 12;fontSize=18;entryX=1;entryY=1;entryDx=0;entryDy=0;exitX=0;exitY=0.5;exitDx=0;exitDy=0;" parent="1" source="wN9utnGlaQvAO8IS5gMv-2" target="wWqvwWIY2G9IgE8s-0Am-43" edge="1">
          <mxGeometry width="160" relative="1" as="geometry">
            <mxPoint x="489" y="991" as="sourcePoint" />
            <mxPoint x="360" y="1065" as="targetPoint" />
          </mxGeometry>
        </mxCell>
        <mxCell id="wN9utnGlaQvAO8IS5gMv-4" value="" style="endArrow=none;html=1;rounded=0;exitX=0.5;exitY=0.5;exitDx=0;exitDy=0;exitPerimeter=0;entryX=0.367;entryY=0.043;entryDx=0;entryDy=0;entryPerimeter=0;" parent="1" source="wWqvwWIY2G9IgE8s-0Am-32" target="wN9utnGlaQvAO8IS5gMv-1" edge="1">
          <mxGeometry width="50" height="50" relative="1" as="geometry">
            <mxPoint x="70" y="1223" as="sourcePoint" />
            <mxPoint x="303" y="1315" as="targetPoint" />
          </mxGeometry>
        </mxCell>
        <mxCell id="wN9utnGlaQvAO8IS5gMv-5" value="" style="endArrow=none;html=1;rounded=0;exitX=1;exitY=0.5;exitDx=0;exitDy=0;entryX=0.5;entryY=0.5;entryDx=0;entryDy=0;entryPerimeter=0;" parent="1" source="wN9utnGlaQvAO8IS5gMv-6" target="wWqvwWIY2G9IgE8s-0Am-31" edge="1">
          <mxGeometry width="50" height="50" relative="1" as="geometry">
            <mxPoint x="1051" y="1163" as="sourcePoint" />
            <mxPoint x="1261" y="1420" as="targetPoint" />
          </mxGeometry>
        </mxCell>
        <mxCell id="wN9utnGlaQvAO8IS5gMv-6" value="View Published Books" style="ellipse;whiteSpace=wrap;html=1;fontSize=16;" parent="1" vertex="1">
          <mxGeometry x="810" y="1187.5" width="150" height="70" as="geometry" />
        </mxCell>
        <mxCell id="cl-K6dVOTJRqZoK_zIlz-1" value="View Book&lt;div&gt;Details&lt;/div&gt;" style="ellipse;whiteSpace=wrap;html=1;fontSize=16;" parent="1" vertex="1">
          <mxGeometry x="700" y="645.5" width="89" height="65" as="geometry" />
        </mxCell>
        <mxCell id="cl-K6dVOTJRqZoK_zIlz-2" value="&amp;lt;&amp;lt;extend&amp;gt;&amp;gt;" style="endArrow=openThin;endSize=16;endFill=0;html=1;rounded=0;startFill=1;dashed=1;dashPattern=12 12;fontSize=18;entryX=1;entryY=0.5;entryDx=0;entryDy=0;exitX=0.281;exitY=0.054;exitDx=0;exitDy=0;exitPerimeter=0;" parent="1" source="cl-K6dVOTJRqZoK_zIlz-1" target="wWqvwWIY2G9IgE8s-0Am-37" edge="1">
          <mxGeometry width="160" relative="1" as="geometry">
            <mxPoint x="485" y="635" as="sourcePoint" />
            <mxPoint x="375" y="644" as="targetPoint" />
          </mxGeometry>
        </mxCell>
        <mxCell id="cl-K6dVOTJRqZoK_zIlz-3" value="&amp;lt;&amp;lt;extend&amp;gt;&amp;gt;" style="endArrow=openThin;endSize=16;endFill=0;html=1;rounded=0;startFill=1;dashed=1;dashPattern=12 12;fontSize=18;entryX=1;entryY=0.5;entryDx=0;entryDy=0;exitX=0;exitY=0.5;exitDx=0;exitDy=0;" parent="1" source="cl-K6dVOTJRqZoK_zIlz-1" target="wWqvwWIY2G9IgE8s-0Am-40" edge="1">
          <mxGeometry width="160" relative="1" as="geometry">
            <mxPoint x="636" y="670" as="sourcePoint" />
            <mxPoint x="585" y="635" as="targetPoint" />
          </mxGeometry>
        </mxCell>
      </root>
    </mxGraphModel>
  </diagram>
</mxfile>
